<svg width="24" height="24" viewBox="0 0 24 24" fill="none" xmlns="http://www.w3.org/2000/svg">
<path d="M19.8989 12.6594C19.7386 12.4769 19.6502 12.2423 19.6502 11.9994C19.6502 11.7565 19.7386 11.5219 19.8989 11.3394L21.1789 9.89941C21.32 9.74208 21.4076 9.54411 21.4291 9.33391C21.4507 9.12372 21.4051 8.91209 21.2989 8.72941L19.2989 5.26941C19.1938 5.08693 19.0338 4.94228 18.8417 4.85609C18.6495 4.7699 18.4351 4.74656 18.2289 4.78941L16.3489 5.16941C16.1097 5.21884 15.8607 5.179 15.6488 5.05741C15.4369 4.93582 15.2769 4.74089 15.1989 4.50941L14.5889 2.67941C14.5218 2.48079 14.394 2.30827 14.2235 2.18625C14.0531 2.06423 13.8486 1.99887 13.6389 1.99941H9.63892C9.42085 1.98802 9.20505 2.04833 9.02448 2.17112C8.84391 2.29391 8.7085 2.47243 8.63892 2.67941L8.07892 4.50941C8.00092 4.74089 7.84089 4.93582 7.62903 5.05741C7.41717 5.179 7.16814 5.21884 6.92892 5.16941L4.99892 4.78941C4.80347 4.76179 4.60422 4.79263 4.42627 4.87805C4.24831 4.96346 4.09962 5.09964 3.99892 5.26941L1.99892 8.72941C1.89008 8.91006 1.84114 9.12049 1.8591 9.33063C1.87706 9.54077 1.961 9.73985 2.09892 9.89941L3.36892 11.3394C3.52924 11.5219 3.61765 11.7565 3.61765 11.9994C3.61765 12.2423 3.52924 12.4769 3.36892 12.6594L2.09892 14.0994C1.961 14.259 1.87706 14.458 1.8591 14.6682C1.84114 14.8783 1.89008 15.0888 1.99892 15.2694L3.99892 18.7294C4.10402 18.9119 4.26404 19.0565 4.45617 19.1427C4.6483 19.2289 4.86274 19.2522 5.06892 19.2094L6.94892 18.8294C7.18814 18.78 7.43717 18.8198 7.64903 18.9414C7.86089 19.063 8.02092 19.2579 8.09892 19.4894L8.70892 21.3194C8.7785 21.5264 8.91392 21.7049 9.09449 21.8277C9.27506 21.9505 9.49085 22.0108 9.70892 21.9994H13.7089C13.9186 21.9999 14.1231 21.9346 14.2935 21.8126C14.464 21.6905 14.5918 21.518 14.6589 21.3194L15.2689 19.4894C15.3469 19.2579 15.5069 19.063 15.7188 18.9414C15.9307 18.8198 16.1797 18.78 16.4189 18.8294L18.2989 19.2094C18.5051 19.2522 18.7195 19.2289 18.9117 19.1427C19.1038 19.0565 19.2638 18.9119 19.3689 18.7294L21.3689 15.2694C21.4751 15.0867 21.5207 14.8751 21.4991 14.6649C21.4776 14.4547 21.39 14.2567 21.2489 14.0994L19.8989 12.6594ZM18.4089 13.9994L19.2089 14.8994L17.9289 17.1194L16.7489 16.8794C16.0287 16.7322 15.2795 16.8545 14.6435 17.2232C14.0075 17.5919 13.5291 18.1812 13.2989 18.8794L12.9189 19.9994H10.3589L9.99892 18.8594C9.76877 18.1612 9.2903 17.5719 8.65432 17.2032C8.01835 16.8345 7.26914 16.7122 6.54892 16.8594L5.36892 17.0994L4.06892 14.8894L4.86892 13.9894C5.36087 13.4394 5.63285 12.7273 5.63285 11.9894C5.63285 11.2515 5.36087 10.5394 4.86892 9.98941L4.06892 9.08941L5.34892 6.88941L6.52892 7.12941C7.24914 7.27663 7.99835 7.15429 8.63432 6.78561C9.2703 6.41692 9.74877 5.82757 9.97892 5.12941L10.3589 3.99941H12.9189L13.2989 5.13941C13.5291 5.83757 14.0075 6.42692 14.6435 6.79561C15.2795 7.16429 16.0287 7.28663 16.7489 7.13941L17.9289 6.89941L19.2089 9.11941L18.4089 10.0194C17.9225 10.5682 17.6539 11.2761 17.6539 12.0094C17.6539 12.7427 17.9225 13.4506 18.4089 13.9994ZM11.6389 7.99941C10.8478 7.99941 10.0744 8.234 9.41664 8.67353C8.75884 9.11305 8.24615 9.73777 7.9434 10.4687C7.64065 11.1996 7.56144 12.0038 7.71578 12.7798C7.87012 13.5557 8.25108 14.2684 8.81049 14.8278C9.3699 15.3872 10.0826 15.7682 10.8586 15.9225C11.6345 16.0769 12.4387 15.9977 13.1697 15.6949C13.9006 15.3922 14.5253 14.8795 14.9648 14.2217C15.4043 13.5639 15.6389 12.7905 15.6389 11.9994C15.6389 10.9385 15.2175 9.92112 14.4673 9.17098C13.7172 8.42083 12.6998 7.99941 11.6389 7.99941ZM11.6389 13.9994C11.2434 13.9994 10.8567 13.8821 10.5278 13.6623C10.1989 13.4426 9.94254 13.1302 9.79116 12.7648C9.63979 12.3993 9.60018 11.9972 9.67735 11.6092C9.75452 11.2213 9.945 10.8649 10.2247 10.5852C10.5044 10.3055 10.8608 10.115 11.2487 10.0378C11.6367 9.96067 12.0388 10.0003 12.4043 10.1516C12.7697 10.303 13.0821 10.5594 13.3019 10.8883C13.5216 11.2172 13.6389 11.6038 13.6389 11.9994C13.6389 12.5298 13.4282 13.0385 13.0531 13.4136C12.6781 13.7887 12.1694 13.9994 11.6389 13.9994Z" fill="#0061FF"/>
</svg>
